# MagicaVoxel @ Ephtracy

# group
g crossSign

# material
mtllib crossSign.mtl
usemtl palette

# normals
vn -1 0 0
vn 1 0 0
vn 0 0 1
vn 0 0 -1
vn 0 -1 0
vn 0 1 0

# texcoords
vt 0.861328 0.5
vt 0.873047 0.5
vt 0.958984 0.5
vt 0.994141 0.5

# verts
v -2 6 -1
v -2 6 -2
v -2 7 -1
v -2 7 -2
v -2 8 -1
v -2 8 -2
v -1 5 -1
v -1 5 -2
v -1 6 -1
v -1 6 -2
v 0 0 -0
v 0 0 -1
v 0 1 -0
v 0 1 -1
v 0 2 -0
v 0 2 -1
v 0 3 -0
v 0 3 -1
v 0 4 -0
v 0 4 -1
v 0 5 -0
v 0 5 -1
v 0 6 -0
v 0 6 -1
v 0 7 -0
v 0 7 -1
v 0 8 -1
v 0 9 -0
v 0 9 -1
v 1 5 -1
v 1 5 -2
v 1 6 -1
v 1 6 -2
v 0 5 -1
v 0 5 -2
v 0 6 -1
v 0 6 -2
v 1 0 -0
v 1 0 -1
v 1 1 -0
v 1 1 -1
v 1 2 -0
v 1 2 -1
v 1 3 -0
v 1 3 -1
v 1 4 -0
v 1 4 -1
v 1 5 -0
v 1 5 -1
v 1 6 -0
v 1 6 -1
v 1 7 -0
v 1 7 -1
v 1 8 -1
v 1 9 -0
v 1 9 -1
v 2 5 -1
v 2 5 -2
v 2 6 -1
v 2 6 -2
v 3 6 -1
v 3 6 -2
v 3 7 -1
v 3 7 -2
v 3 8 -1
v 3 8 -2
v 0 0 -0
v 0 1 -0
v 0 2 -0
v 0 3 -0
v 0 4 -0
v 0 5 -0
v 0 6 -0
v 0 7 -0
v 0 9 -0
v 1 0 -0
v 1 1 -0
v 1 2 -0
v 1 3 -0
v 1 4 -0
v 1 5 -0
v 1 6 -0
v 1 7 -0
v 1 9 -0
v -2 6 -1
v -2 7 -1
v -2 8 -1
v -1 5 -1
v -1 6 -1
v 0 5 -1
v 0 6 -1
v 0 7 -1
v 0 8 -1
v 1 5 -1
v 1 6 -1
v 1 7 -1
v 1 8 -1
v 2 5 -1
v 2 6 -1
v 3 6 -1
v 3 7 -1
v 3 8 -1
v 0 0 -1
v 0 1 -1
v 0 2 -1
v 0 3 -1
v 0 4 -1
v 0 5 -1
v 0 6 -1
v 0 8 -1
v 0 9 -1
v 1 0 -1
v 1 1 -1
v 1 2 -1
v 1 3 -1
v 1 4 -1
v 1 5 -1
v 1 6 -1
v 1 8 -1
v 1 9 -1
v -2 6 -2
v -2 7 -2
v -2 8 -2
v -1 5 -2
v -1 6 -2
v 0 5 -2
v 0 6 -2
v 1 5 -2
v 1 6 -2
v 2 5 -2
v 2 6 -2
v 3 6 -2
v 3 7 -2
v 3 8 -2
v 0 0 -0
v 1 0 -0
v 0 0 -1
v 1 0 -1
v -1 5 -1
v 0 5 -1
v 1 5 -1
v 2 5 -1
v -1 5 -2
v 0 5 -2
v 1 5 -2
v 2 5 -2
v -2 6 -1
v -1 6 -1
v 0 6 -1
v 1 6 -1
v 2 6 -1
v 3 6 -1
v -2 6 -2
v -1 6 -2
v 0 6 -2
v 1 6 -2
v 2 6 -2
v 3 6 -2
v -2 8 -1
v 0 8 -1
v 1 8 -1
v 3 8 -1
v -2 8 -2
v 3 8 -2
v 0 9 -0
v 1 9 -0
v 0 9 -1
v 1 9 -1

# faces
f 3/4/1 2/4/1 1/4/1
f 4/4/1 2/4/1 3/4/1
f 5/2/1 4/2/1 3/2/1
f 6/2/1 4/2/1 5/2/1
f 9/2/1 8/2/1 7/2/1
f 10/2/1 8/2/1 9/2/1
f 13/1/1 12/1/1 11/1/1
f 14/1/1 12/1/1 13/1/1
f 15/3/1 14/3/1 13/3/1
f 16/3/1 14/3/1 15/3/1
f 17/1/1 16/1/1 15/1/1
f 18/1/1 16/1/1 17/1/1
f 19/3/1 18/3/1 17/3/1
f 20/3/1 18/3/1 19/3/1
f 21/1/1 20/1/1 19/1/1
f 22/1/1 20/1/1 21/1/1
f 23/3/1 22/3/1 21/3/1
f 24/3/1 22/3/1 23/3/1
f 25/1/1 24/1/1 23/1/1
f 26/1/1 24/1/1 25/1/1
f 27/3/1 26/3/1 25/3/1
f 28/3/1 27/3/1 25/3/1
f 29/3/1 27/3/1 28/3/1
f 32/2/1 31/2/1 30/2/1
f 33/2/1 31/2/1 32/2/1
f 34/2/2 35/2/2 36/2/2
f 36/2/2 35/2/2 37/2/2
f 38/1/2 39/1/2 40/1/2
f 40/1/2 39/1/2 41/1/2
f 40/3/2 41/3/2 42/3/2
f 42/3/2 41/3/2 43/3/2
f 42/1/2 43/1/2 44/1/2
f 44/1/2 43/1/2 45/1/2
f 44/3/2 45/3/2 46/3/2
f 46/3/2 45/3/2 47/3/2
f 46/1/2 47/1/2 48/1/2
f 48/1/2 47/1/2 49/1/2
f 48/3/2 49/3/2 50/3/2
f 50/3/2 49/3/2 51/3/2
f 50/1/2 51/1/2 52/1/2
f 52/1/2 51/1/2 53/1/2
f 52/3/2 53/3/2 54/3/2
f 52/3/2 54/3/2 55/3/2
f 55/3/2 54/3/2 56/3/2
f 57/2/2 58/2/2 59/2/2
f 59/2/2 58/2/2 60/2/2
f 61/4/2 62/4/2 63/4/2
f 63/4/2 62/4/2 64/4/2
f 63/2/2 64/2/2 65/2/2
f 65/2/2 64/2/2 66/2/2
f 76/1/3 68/1/3 67/1/3
f 77/3/3 69/3/3 68/3/3
f 77/1/3 68/1/3 76/1/3
f 78/1/3 70/1/3 69/1/3
f 78/3/3 69/3/3 77/3/3
f 79/3/3 71/3/3 70/3/3
f 79/1/3 70/1/3 78/1/3
f 80/1/3 72/1/3 71/1/3
f 80/3/3 71/3/3 79/3/3
f 81/3/3 73/3/3 72/3/3
f 81/1/3 72/1/3 80/1/3
f 82/1/3 74/1/3 73/1/3
f 82/3/3 73/3/3 81/3/3
f 83/3/3 75/3/3 74/3/3
f 83/1/3 74/1/3 82/1/3
f 84/3/3 75/3/3 83/3/3
f 89/4/3 86/4/3 85/4/3
f 90/2/3 89/2/3 88/2/3
f 91/4/3 86/4/3 89/4/3
f 91/2/3 89/2/3 90/2/3
f 92/2/3 87/2/3 86/2/3
f 92/4/3 86/4/3 91/4/3
f 93/2/3 87/2/3 92/2/3
f 98/2/3 95/2/3 94/2/3
f 99/4/3 96/4/3 95/4/3
f 99/2/3 95/2/3 98/2/3
f 100/4/3 96/4/3 99/4/3
f 101/2/3 97/2/3 96/2/3
f 101/4/3 96/4/3 100/4/3
f 102/2/3 97/2/3 101/2/3
f 103/1/4 104/1/4 112/1/4
f 104/3/4 105/3/4 113/3/4
f 112/1/4 104/1/4 113/1/4
f 105/1/4 106/1/4 114/1/4
f 113/3/4 105/3/4 114/3/4
f 106/3/4 107/3/4 115/3/4
f 114/1/4 106/1/4 115/1/4
f 107/1/4 108/1/4 116/1/4
f 115/3/4 107/3/4 116/3/4
f 108/3/4 109/3/4 117/3/4
f 116/1/4 108/1/4 117/1/4
f 117/3/4 109/3/4 118/3/4
f 110/3/4 111/3/4 119/3/4
f 119/3/4 111/3/4 120/3/4
f 121/4/4 122/4/4 125/4/4
f 124/2/4 125/2/4 126/2/4
f 125/4/4 122/4/4 127/4/4
f 126/2/4 125/2/4 127/2/4
f 127/4/4 122/4/4 129/4/4
f 128/2/4 129/2/4 130/2/4
f 129/4/4 122/4/4 131/4/4
f 130/2/4 129/2/4 131/2/4
f 131/4/4 122/4/4 132/4/4
f 122/2/4 123/2/4 133/2/4
f 132/4/4 122/4/4 133/4/4
f 133/2/4 123/2/4 134/2/4
f 137/1/5 136/1/5 135/1/5
f 138/1/5 136/1/5 137/1/5
f 143/2/5 140/2/5 139/2/5
f 144/2/5 140/2/5 143/2/5
f 145/2/5 142/2/5 141/2/5
f 146/2/5 142/2/5 145/2/5
f 153/4/5 148/4/5 147/4/5
f 154/4/5 148/4/5 153/4/5
f 155/4/5 150/4/5 149/4/5
f 156/4/5 150/4/5 155/4/5
f 157/4/5 152/4/5 151/4/5
f 158/4/5 152/4/5 157/4/5
f 159/2/6 160/2/6 163/2/6
f 161/2/6 162/2/6 163/2/6
f 160/2/6 161/2/6 163/2/6
f 163/2/6 162/2/6 164/2/6
f 165/3/6 166/3/6 167/3/6
f 167/3/6 166/3/6 168/3/6
