# MagicaVoxel @ Ephtracy

# group
g log

# material
mtllib log.mtl
usemtl palette

# normals
vn -1 0 0
vn 1 0 0
vn 0 0 1
vn 0 0 -1
vn 0 -1 0
vn 0 1 0

# texcoords
vt 0.396484 0.5
vt 0.560547 0.5

# verts
v -18 0 7
v -18 0 5
v -18 0 1
v -18 0 -1
v -18 2 5
v -18 2 1
v -18 3 7
v -18 3 -1
v 20 0 7
v 20 0 5
v 20 0 1
v 20 0 -1
v 20 2 5
v 20 2 1
v 20 3 7
v 20 3 -1
v -18 0 7
v -18 3 7
v -16 0 7
v -16 3 7
v 18 0 7
v 18 1 7
v 18 2 7
v 18 3 7
v 19 1 7
v 19 2 7
v 20 0 7
v 20 3 7
v -18 0 1
v -18 2 1
v -16 0 1
v -16 2 1
v -13 2 1
v -8 2 1
v 8 2 1
v 17 2 1
v 18 0 1
v 18 2 1
v 20 0 1
v 20 2 1
v -18 0 5
v -18 2 5
v -17 1 5
v -17 2 5
v -16 0 5
v -16 1 5
v -16 2 5
v -14 2 5
v -7 2 5
v 12 2 5
v 18 0 5
v 18 1 5
v 19 1 5
v 19 2 5
v 20 0 5
v 20 2 5
v -18 0 -1
v -18 3 -1
v -16 0 -1
v -16 3 -1
v 18 0 -1
v 18 3 -1
v 20 0 -1
v 20 3 -1
v -18 0 7
v -16 0 7
v 18 0 7
v 20 0 7
v -18 0 5
v -16 0 5
v 18 0 5
v 20 0 5
v -18 0 1
v -16 0 1
v 18 0 1
v 20 0 1
v -18 0 -1
v -16 0 -1
v 18 0 -1
v 20 0 -1
v -18 2 5
v -17 2 5
v -16 2 5
v -14 2 5
v -7 2 5
v 12 2 5
v 19 2 5
v 20 2 5
v -14 2 4
v -7 2 4
v -2 2 4
v 5 2 4
v -6 2 3
v -2 2 3
v 1 2 3
v 5 2 3
v 12 2 3
v 18 2 3
v -13 2 2
v -8 2 2
v -6 2 2
v 1 2 2
v 8 2 2
v 17 2 2
v -18 2 1
v -16 2 1
v -13 2 1
v -8 2 1
v 8 2 1
v 17 2 1
v 18 2 1
v 20 2 1
v -18 3 7
v -16 3 7
v 18 3 7
v 20 3 7
v -14 3 6
v -7 3 6
v 6 3 6
v 11 3 6
v 6 3 5
v 11 3 5
v 12 3 5
v 18 3 5
v -14 3 4
v -7 3 4
v -2 3 4
v 5 3 4
v -6 3 3
v -2 3 3
v 1 3 3
v 5 3 3
v 12 3 3
v 18 3 3
v -13 3 2
v -8 3 2
v -6 3 2
v 1 3 2
v 8 3 2
v 17 3 2
v -15 3 1
v -13 3 1
v -8 3 1
v -7 3 1
v 8 3 1
v 17 3 1
v -15 3 -0
v -7 3 -0
v -18 3 -1
v -16 3 -1
v 18 3 -1
v 20 3 -1

# faces
f 5/1/1 2/1/1 1/1/1
f 6/1/1 4/1/1 3/1/1
f 7/1/1 5/1/1 1/1/1
f 7/1/1 6/1/1 5/1/1
f 8/1/1 4/1/1 6/1/1
f 8/1/1 6/1/1 7/1/1
f 9/1/2 10/1/2 13/1/2
f 11/1/2 12/1/2 14/1/2
f 9/1/2 13/1/2 15/1/2
f 13/1/2 14/1/2 15/1/2
f 14/1/2 12/1/2 16/1/2
f 15/1/2 14/1/2 16/1/2
f 19/1/3 18/1/3 17/1/3
f 20/1/3 18/1/3 19/1/3
f 21/2/3 20/2/3 19/2/3
f 22/2/3 20/2/3 21/2/3
f 23/2/3 20/2/3 22/2/3
f 24/2/3 20/2/3 23/2/3
f 25/1/3 22/1/3 21/1/3
f 25/2/3 23/2/3 22/2/3
f 26/1/3 24/1/3 23/1/3
f 26/2/3 23/2/3 25/2/3
f 27/1/3 25/1/3 21/1/3
f 27/1/3 26/1/3 25/1/3
f 28/1/3 24/1/3 26/1/3
f 28/1/3 26/1/3 27/1/3
f 31/1/3 30/1/3 29/1/3
f 32/1/3 30/1/3 31/1/3
f 33/2/3 32/2/3 31/2/3
f 34/2/3 33/2/3 31/2/3
f 35/2/3 34/2/3 31/2/3
f 36/2/3 35/2/3 31/2/3
f 37/2/3 36/2/3 31/2/3
f 38/2/3 36/2/3 37/2/3
f 39/1/3 38/1/3 37/1/3
f 40/1/3 38/1/3 39/1/3
f 41/1/4 42/1/4 43/1/4
f 43/1/4 42/1/4 44/1/4
f 41/1/4 43/1/4 45/1/4
f 43/2/4 44/2/4 46/2/4
f 45/1/4 43/1/4 46/1/4
f 46/2/4 44/2/4 47/2/4
f 45/2/4 46/2/4 48/2/4
f 46/2/4 47/2/4 48/2/4
f 45/2/4 48/2/4 49/2/4
f 45/2/4 49/2/4 50/2/4
f 45/2/4 50/2/4 51/2/4
f 51/2/4 50/2/4 52/2/4
f 51/1/4 52/1/4 53/1/4
f 52/2/4 50/2/4 53/2/4
f 53/2/4 50/2/4 54/2/4
f 51/1/4 53/1/4 55/1/4
f 53/1/4 54/1/4 55/1/4
f 55/1/4 54/1/4 56/1/4
f 57/1/4 58/1/4 59/1/4
f 59/1/4 58/1/4 60/1/4
f 59/2/4 60/2/4 61/2/4
f 61/2/4 60/2/4 62/2/4
f 61/1/4 62/1/4 63/1/4
f 63/1/4 62/1/4 64/1/4
f 69/1/5 66/1/5 65/1/5
f 70/2/5 67/2/5 66/2/5
f 70/1/5 66/1/5 69/1/5
f 71/1/5 68/1/5 67/1/5
f 71/2/5 67/2/5 70/2/5
f 72/1/5 68/1/5 71/1/5
f 77/1/5 74/1/5 73/1/5
f 78/2/5 75/2/5 74/2/5
f 78/1/5 74/1/5 77/1/5
f 79/1/5 76/1/5 75/1/5
f 79/2/5 75/2/5 78/2/5
f 80/1/5 76/1/5 79/1/5
f 89/2/5 84/2/5 83/2/5
f 89/1/5 85/1/5 84/1/5
f 90/2/5 86/2/5 85/2/5
f 90/1/5 85/1/5 89/1/5
f 91/2/5 86/2/5 90/2/5
f 92/2/5 86/2/5 91/2/5
f 93/2/5 90/2/5 89/2/5
f 93/2/5 91/2/5 90/2/5
f 94/1/5 92/1/5 91/1/5
f 94/2/5 91/2/5 93/2/5
f 95/1/5 92/1/5 94/1/5
f 96/2/5 86/2/5 92/2/5
f 96/1/5 92/1/5 95/1/5
f 97/1/5 88/1/5 87/1/5
f 97/2/5 86/2/5 96/2/5
f 97/1/5 87/1/5 86/1/5
f 98/1/5 88/1/5 97/1/5
f 99/2/5 93/2/5 89/2/5
f 100/2/5 93/2/5 99/2/5
f 101/1/5 94/1/5 93/1/5
f 101/2/5 93/2/5 100/2/5
f 101/1/5 95/1/5 94/1/5
f 102/2/5 96/2/5 95/2/5
f 102/1/5 95/1/5 101/1/5
f 102/2/5 97/2/5 96/2/5
f 102/2/5 98/2/5 97/2/5
f 103/2/5 98/2/5 102/2/5
f 104/2/5 98/2/5 103/2/5
f 105/1/5 82/1/5 81/1/5
f 105/1/5 83/1/5 82/1/5
f 106/2/5 89/2/5 83/2/5
f 106/1/5 83/1/5 105/1/5
f 106/2/5 99/2/5 89/2/5
f 107/1/5 100/1/5 99/1/5
f 107/2/5 99/2/5 106/2/5
f 108/2/5 101/2/5 100/2/5
f 108/1/5 100/1/5 107/1/5
f 108/2/5 103/2/5 102/2/5
f 108/2/5 102/2/5 101/2/5
f 109/1/5 104/1/5 103/1/5
f 109/2/5 103/2/5 108/2/5
f 110/2/5 98/2/5 104/2/5
f 110/1/5 104/1/5 109/1/5
f 111/1/5 88/1/5 98/1/5
f 111/2/5 98/2/5 110/2/5
f 112/1/5 88/1/5 111/1/5
f 114/2/6 115/2/6 117/2/6
f 117/2/6 115/2/6 118/2/6
f 118/2/6 115/2/6 119/2/6
f 119/2/6 115/2/6 120/2/6
f 118/2/6 119/2/6 121/2/6
f 119/1/6 120/1/6 121/1/6
f 120/2/6 115/2/6 122/2/6
f 121/1/6 120/1/6 122/1/6
f 122/2/6 115/2/6 123/2/6
f 115/1/6 116/1/6 124/1/6
f 123/2/6 115/2/6 124/2/6
f 114/2/6 117/2/6 125/2/6
f 117/1/6 118/1/6 125/1/6
f 122/2/6 123/2/6 126/2/6
f 125/1/6 118/1/6 126/1/6
f 118/2/6 121/2/6 126/2/6
f 121/2/6 122/2/6 126/2/6
f 126/2/6 123/2/6 127/2/6
f 127/2/6 123/2/6 128/2/6
f 125/2/6 126/2/6 129/2/6
f 126/2/6 127/2/6 129/2/6
f 127/1/6 128/1/6 130/1/6
f 129/2/6 127/2/6 130/2/6
f 130/1/6 128/1/6 131/1/6
f 128/2/6 123/2/6 132/2/6
f 131/1/6 128/1/6 132/1/6
f 123/1/6 124/1/6 133/1/6
f 132/2/6 123/2/6 133/2/6
f 124/1/6 116/1/6 134/1/6
f 133/1/6 124/1/6 134/1/6
f 125/2/6 129/2/6 135/2/6
f 135/2/6 129/2/6 136/2/6
f 130/1/6 131/1/6 137/1/6
f 136/2/6 129/2/6 137/2/6
f 129/1/6 130/1/6 137/1/6
f 132/2/6 133/2/6 138/2/6
f 137/1/6 131/1/6 138/1/6
f 131/2/6 132/2/6 138/2/6
f 133/2/6 134/2/6 138/2/6
f 138/2/6 134/2/6 139/2/6
f 139/2/6 134/2/6 140/2/6
f 114/2/6 125/2/6 141/2/6
f 125/2/6 135/2/6 141/2/6
f 135/1/6 136/1/6 142/1/6
f 141/2/6 135/2/6 142/2/6
f 136/2/6 137/2/6 143/2/6
f 142/1/6 136/1/6 143/1/6
f 137/2/6 138/2/6 143/2/6
f 138/2/6 139/2/6 143/2/6
f 143/2/6 139/2/6 144/2/6
f 139/1/6 140/1/6 145/1/6
f 144/2/6 139/2/6 145/2/6
f 140/2/6 134/2/6 146/2/6
f 145/1/6 140/1/6 146/1/6
f 141/1/6 142/1/6 147/1/6
f 143/1/6 144/1/6 147/1/6
f 114/2/6 141/2/6 147/2/6
f 142/1/6 143/1/6 147/1/6
f 144/2/6 145/2/6 148/2/6
f 147/1/6 144/1/6 148/1/6
f 145/2/6 146/2/6 148/2/6
f 113/1/6 114/1/6 149/1/6
f 114/2/6 147/2/6 150/2/6
f 149/1/6 114/1/6 150/1/6
f 147/2/6 148/2/6 150/2/6
f 148/2/6 146/2/6 151/2/6
f 150/2/6 148/2/6 151/2/6
f 146/2/6 134/2/6 151/2/6
f 134/1/6 116/1/6 151/1/6
f 151/1/6 116/1/6 152/1/6
