# MagicaVoxel @ Ephtracy

# group
g grass

# material
mtllib grass.mtl
usemtl palette

# normals
vn -1 0 0
vn 1 0 0
vn 0 0 1
vn 0 0 -1
vn 0 -1 0
vn 0 1 0

# texcoords
vt 0.880859 0.5
vt 0.896484 0.5

# verts
v -30 0 30
v -30 0 26
v -30 0 15
v -30 0 -2
v -30 0 -17
v -30 0 -30
v -30 1 30
v -30 1 26
v -30 1 15
v -30 1 -2
v -30 1 -17
v -30 1 -30
v 30 0 30
v 30 0 26
v 30 0 15
v 30 0 -2
v 30 0 -17
v 30 0 -30
v 30 1 30
v 30 1 26
v 30 1 15
v 30 1 -2
v 30 1 -17
v 30 1 -30
v -30 0 30
v -30 1 30
v 30 0 30
v 30 1 30
v -30 0 -30
v -30 1 -30
v 30 0 -30
v 30 1 -30
v -30 0 30
v 30 0 30
v -30 0 26
v 30 0 26
v -30 0 15
v 30 0 15
v -30 0 -2
v 30 0 -2
v -30 0 -17
v 30 0 -17
v -30 0 -30
v 30 0 -30
v -30 1 30
v 30 1 30
v -30 1 26
v 30 1 26
v -30 1 15
v 30 1 15
v -30 1 -2
v 30 1 -2
v -30 1 -17
v 30 1 -17
v -30 1 -30
v 30 1 -30

# faces
f 7/2/1 2/2/1 1/2/1
f 8/1/1 3/1/1 2/1/1
f 8/2/1 2/2/1 7/2/1
f 9/2/1 4/2/1 3/2/1
f 9/1/1 3/1/1 8/1/1
f 10/1/1 5/1/1 4/1/1
f 10/2/1 4/2/1 9/2/1
f 11/2/1 6/2/1 5/2/1
f 11/1/1 5/1/1 10/1/1
f 12/2/1 6/2/1 11/2/1
f 13/2/2 14/2/2 19/2/2
f 14/1/2 15/1/2 20/1/2
f 19/2/2 14/2/2 20/2/2
f 15/2/2 16/2/2 21/2/2
f 20/1/2 15/1/2 21/1/2
f 16/1/2 17/1/2 22/1/2
f 21/2/2 16/2/2 22/2/2
f 17/2/2 18/2/2 23/2/2
f 22/1/2 17/1/2 23/1/2
f 23/2/2 18/2/2 24/2/2
f 27/2/3 26/2/3 25/2/3
f 28/2/3 26/2/3 27/2/3
f 29/2/4 30/2/4 31/2/4
f 31/2/4 30/2/4 32/2/4
f 35/2/5 34/2/5 33/2/5
f 36/2/5 34/2/5 35/2/5
f 37/1/5 36/1/5 35/1/5
f 38/1/5 36/1/5 37/1/5
f 39/2/5 38/2/5 37/2/5
f 40/2/5 38/2/5 39/2/5
f 41/1/5 40/1/5 39/1/5
f 42/1/5 40/1/5 41/1/5
f 43/2/5 42/2/5 41/2/5
f 44/2/5 42/2/5 43/2/5
f 45/2/6 46/2/6 47/2/6
f 47/2/6 46/2/6 48/2/6
f 47/1/6 48/1/6 49/1/6
f 49/1/6 48/1/6 50/1/6
f 49/2/6 50/2/6 51/2/6
f 51/2/6 50/2/6 52/2/6
f 51/1/6 52/1/6 53/1/6
f 53/1/6 52/1/6 54/1/6
f 53/2/6 54/2/6 55/2/6
f 55/2/6 54/2/6 56/2/6
