# MagicaVoxel @ Ephtracy

# group
g treeMedium

# material
mtllib treeMedium.mtl
usemtl palette

# normals
vn -1 0 0
vn 1 0 0
vn 0 0 1
vn 0 0 -1
vn 0 -1 0
vn 0 1 0

# texcoords
vt 0.537109 0.5
vt 0.880859 0.5
vt 0.900391 0.5

# verts
v -8 14 8
v -8 14 -7
v -8 16 8
v -8 16 -7
v -8 18 8
v -8 18 -7
v -8 19 8
v -8 19 -7
v -8 21 8
v -8 21 -7
v -8 22 8
v -8 22 -7
v -8 24 8
v -8 24 -7
v -8 26 8
v -8 26 -7
v -8 28 8
v -8 28 -7
v -8 30 8
v -8 30 -7
v -4 0 4
v -4 0 -3
v -4 14 4
v -4 14 -3
v 4 0 4
v 4 0 -3
v 4 14 4
v 4 14 -3
v 8 14 8
v 8 14 -7
v 8 16 8
v 8 16 -7
v 8 18 8
v 8 18 -7
v 8 19 8
v 8 19 -7
v 8 21 8
v 8 21 -7
v 8 22 8
v 8 22 -7
v 8 24 8
v 8 24 -7
v 8 26 8
v 8 26 -7
v 8 28 8
v 8 28 -7
v 8 30 8
v 8 30 -7
v -8 14 8
v -8 16 8
v -8 18 8
v -8 19 8
v -8 21 8
v -8 22 8
v -8 24 8
v -8 26 8
v -8 28 8
v -8 30 8
v 8 14 8
v 8 16 8
v 8 18 8
v 8 19 8
v 8 21 8
v 8 22 8
v 8 24 8
v 8 26 8
v 8 28 8
v 8 30 8
v -4 0 4
v -4 14 4
v 4 0 4
v 4 14 4
v -4 0 -3
v -4 14 -3
v 4 0 -3
v 4 14 -3
v -8 14 -7
v -8 16 -7
v -8 18 -7
v -8 19 -7
v -8 21 -7
v -8 22 -7
v -8 24 -7
v -8 26 -7
v -8 28 -7
v -8 30 -7
v 8 14 -7
v 8 16 -7
v 8 18 -7
v 8 19 -7
v 8 21 -7
v 8 22 -7
v 8 24 -7
v 8 26 -7
v 8 28 -7
v 8 30 -7
v -4 0 4
v 4 0 4
v -4 0 -3
v 4 0 -3
v -8 14 8
v 8 14 8
v -4 14 4
v 4 14 4
v -4 14 -3
v 4 14 -3
v -8 14 -7
v 8 14 -7
v -8 30 8
v 8 30 8
v -8 30 -7
v 8 30 -7

# faces
f 3/2/1 2/2/1 1/2/1
f 4/2/1 2/2/1 3/2/1
f 5/3/1 4/3/1 3/3/1
f 6/3/1 4/3/1 5/3/1
f 7/2/1 6/2/1 5/2/1
f 8/2/1 6/2/1 7/2/1
f 9/3/1 8/3/1 7/3/1
f 10/3/1 8/3/1 9/3/1
f 11/2/1 10/2/1 9/2/1
f 12/2/1 10/2/1 11/2/1
f 13/3/1 12/3/1 11/3/1
f 14/3/1 12/3/1 13/3/1
f 15/2/1 14/2/1 13/2/1
f 16/2/1 14/2/1 15/2/1
f 17/3/1 16/3/1 15/3/1
f 18/3/1 16/3/1 17/3/1
f 19/2/1 18/2/1 17/2/1
f 20/2/1 18/2/1 19/2/1
f 23/1/1 22/1/1 21/1/1
f 24/1/1 22/1/1 23/1/1
f 25/1/2 26/1/2 27/1/2
f 27/1/2 26/1/2 28/1/2
f 29/2/2 30/2/2 31/2/2
f 31/2/2 30/2/2 32/2/2
f 31/3/2 32/3/2 33/3/2
f 33/3/2 32/3/2 34/3/2
f 33/2/2 34/2/2 35/2/2
f 35/2/2 34/2/2 36/2/2
f 35/3/2 36/3/2 37/3/2
f 37/3/2 36/3/2 38/3/2
f 37/2/2 38/2/2 39/2/2
f 39/2/2 38/2/2 40/2/2
f 39/3/2 40/3/2 41/3/2
f 41/3/2 40/3/2 42/3/2
f 41/2/2 42/2/2 43/2/2
f 43/2/2 42/2/2 44/2/2
f 43/3/2 44/3/2 45/3/2
f 45/3/2 44/3/2 46/3/2
f 45/2/2 46/2/2 47/2/2
f 47/2/2 46/2/2 48/2/2
f 59/2/3 50/2/3 49/2/3
f 60/3/3 51/3/3 50/3/3
f 60/2/3 50/2/3 59/2/3
f 61/2/3 52/2/3 51/2/3
f 61/3/3 51/3/3 60/3/3
f 62/3/3 53/3/3 52/3/3
f 62/2/3 52/2/3 61/2/3
f 63/2/3 54/2/3 53/2/3
f 63/3/3 53/3/3 62/3/3
f 64/3/3 55/3/3 54/3/3
f 64/2/3 54/2/3 63/2/3
f 65/2/3 56/2/3 55/2/3
f 65/3/3 55/3/3 64/3/3
f 66/3/3 57/3/3 56/3/3
f 66/2/3 56/2/3 65/2/3
f 67/2/3 58/2/3 57/2/3
f 67/3/3 57/3/3 66/3/3
f 68/2/3 58/2/3 67/2/3
f 71/1/3 70/1/3 69/1/3
f 72/1/3 70/1/3 71/1/3
f 73/1/4 74/1/4 75/1/4
f 75/1/4 74/1/4 76/1/4
f 77/2/4 78/2/4 87/2/4
f 78/3/4 79/3/4 88/3/4
f 87/2/4 78/2/4 88/2/4
f 79/2/4 80/2/4 89/2/4
f 88/3/4 79/3/4 89/3/4
f 80/3/4 81/3/4 90/3/4
f 89/2/4 80/2/4 90/2/4
f 81/2/4 82/2/4 91/2/4
f 90/3/4 81/3/4 91/3/4
f 82/3/4 83/3/4 92/3/4
f 91/2/4 82/2/4 92/2/4
f 83/2/4 84/2/4 93/2/4
f 92/3/4 83/3/4 93/3/4
f 84/3/4 85/3/4 94/3/4
f 93/2/4 84/2/4 94/2/4
f 85/2/4 86/2/4 95/2/4
f 94/3/4 85/3/4 95/3/4
f 95/2/4 86/2/4 96/2/4
f 99/1/5 98/1/5 97/1/5
f 100/1/5 98/1/5 99/1/5
f 103/2/5 102/2/5 101/2/5
f 104/2/5 102/2/5 103/2/5
f 105/2/5 103/2/5 101/2/5
f 106/2/5 102/2/5 104/2/5
f 107/2/5 105/2/5 101/2/5
f 107/2/5 106/2/5 105/2/5
f 108/2/5 102/2/5 106/2/5
f 108/2/5 106/2/5 107/2/5
f 109/2/6 110/2/6 111/2/6
f 111/2/6 110/2/6 112/2/6
